<svg version="1.1" xmlns="http://www.w3.org/2000/svg" xmlns:xlink="http://www.w3.org/1999/xlink" width="48" height="48"><defs><linearGradient x1="6.92645" y1="12.12275" x2="44.9906" y2="39.7943" gradientUnits="userSpaceOnUse" id="color-1"><stop offset="0" stop-color="#000000" stop-opacity="0.22"></stop><stop offset="1" stop-color="#000000" stop-opacity="0"></stop></linearGradient><filter id="dropshadow-base"><feColorMatrix type="matrix" values="0 0 0 0 0  0 0 0 0 0  0 0 0 0 0  0 0 0 .8 0"></feColorMatrix> <feOffset dx="0" dy="1"></feOffset> <feGaussianBlur stdDeviation="1"></feGaussianBlur> <feComposite in="SourceGraphic"></feComposite></filter><filter id="dropshadow-banner" x="-10%" y="-10%" width="120%" height="130%"><feColorMatrix type="matrix" values="0 0 0 0 0  0 0 0 0 0  0 0 0 0 0  0 0 0 .4 0"></feColorMatrix> <feOffset dx="0" dy="1"></feOffset> <feGaussianBlur stdDeviation="0.5"></feGaussianBlur> <feComposite in="SourceGraphic"></feComposite></filter></defs><g fill="none" fill-rule="nonzero" stroke="none" stroke-width="none" stroke-linecap="butt" stroke-linejoin="miter" stroke-miterlimit="10" stroke-dasharray="" stroke-dashoffset="0" font-family="none" font-weight="none" font-size="none" text-anchor="none" style="mix-blend-mode: normal"><path d="M4,40c-1.10457,0 -2,-0.89543 -2,-2v-28c0,-1.10457 0.89543,-2 2,-2h40c1.10457,0 2,0.89543 2,2v28c0,1.10457 -0.89543,2 -2,2z" id="base 1 9" fill-opacity="0" fill="#512da8" stroke-width="1"></path><path d="M31.52869,17.38733l3.65575,3.65575l3.77664,6.71241l2.11247,-3.7555l-4.47761,-7.9602h-4.22491zM44.9906,27.91705l-6.68095,11.87725h-5.93862l-3.91705,-3.91705l6.68095,-11.87725l-0.85212,-1.51452l-10.81973,17.30882h-5.93862l-3.91705,-3.91705l-6.68095,-11.87725l6.68095,-11.87725h5.93862l3.91705,3.91705l-6.68095,11.87725l0.85212,1.51452l10.81973,-17.30882h5.93862l3.91705,3.91705zM16.73261,30.87396l-3.77664,-6.71241l-2.11247,3.7555l4.47761,7.9602h4.22491l0.84234,-1.34753z" fill="url(#color-1)" stroke-width="1"></path><path transform="translate(-16.97652,-16.97652) scale(1.70735,1.70735)" d="M30.08696,17.04348h-3.47826l-6.86522,10.98261l-2.26522,-4.02609l3.91304,-6.95652h-3.47826l-3.91304,6.95652l3.91304,6.95652h3.47826l6.86522,-10.98261l2.26522,4.02609l-3.91304,6.95652h3.47826l3.91304,-6.95652z" fill="none" stroke-width="0"></path><path d="M41.07355,24l-6.68095,11.87725h-5.93863l6.68095,-11.87725l-3.86753,-6.87396l-11.72136,18.75121h-5.93863l-6.68095,-11.87725l6.68095,-11.87725h5.93863l-6.68095,11.87725l3.86753,6.87396l11.72136,-18.75121h5.93863z" fill="#ffffff" stroke-width="0"></path><path d="M2,24c0,-12.15026 9.84974,-22 22,-22c12.15026,0 22,9.84974 22,22c0,12.15026 -9.84974,22 -22,22c-12.15026,0 -22,-9.84974 -22,-22z" id="base 1 5 1" fill="none" stroke-width="1"></path><path d="M2,24c0,-12.15026 9.84974,-22 22,-22c12.15026,0 22,9.84974 22,22c0,12.15026 -9.84974,22 -22,22c-12.15026,0 -22,-9.84974 -22,-22z" id="base 1 1 1" fill="none" stroke-width="1"></path><g fill="#000000" stroke-width="1" font-family="Roboto, sans-serif" font-weight="400" font-size="14" text-anchor="start"></g><rect x="2" y="2" width="44" height="22" fill="none" stroke-width="1"></rect><path d="M2,24v-22h44v22z" fill="none" stroke-width="1"></path><path d="M2,24v-22h44v22z" fill="none" stroke-width="1"></path><path d="M2,24v-22h44v22z" fill="none" stroke-width="1"></path><path d="M2,24v-22h44v22z" fill="none" stroke-width="1"></path><g fill="#000000" stroke-width="1" font-family="Roboto, sans-serif" font-weight="400" font-size="14" text-anchor="start"></g><rect x="2" y="2" width="44" height="22" fill="none" stroke-width="1"></rect><path d="M2,24v-22h44v22z" fill="none" stroke-width="1"></path><path d="M2,24v-22h44v22z" fill="none" stroke-width="1"></path><path d="M2,24v-22h44v22z" fill="none" stroke-width="1"></path><path d="M2,24v-22h44v22z" fill="none" stroke-width="1"></path></g></svg>